<svg width="32" height="32" viewBox="0 0 32 32" fill="none" xmlns="http://www.w3.org/2000/svg">
<path d="M1.7685 8.58359C1.81731 8.4917 1.89484 8.40269 1.91207 8.30506C2.09584 7.28283 3.0348 6.62814 4.2724 6.59655C4.37864 6.59655 4.48489 6.59655 4.59113 6.59655C10.4431 6.59655 16.2951 6.60804 22.1443 6.58794C23.5858 6.58219 24.6109 7.13351 25.2454 8.4515C26.0093 10.0394 26.7903 11.6187 27.6259 13.1693C28.0164 13.89 28.5419 14.5418 29.0271 15.2109C29.4378 15.7737 29.9403 16.2791 30.0752 16.9969C30.1355 17.3099 30.1843 17.6286 30.1901 17.9445C30.2044 19.0098 30.1958 20.078 30.1958 21.1433C30.1958 22.3177 29.4435 23.0787 28.2605 23.0758C27.9618 23.0758 27.8211 23.1303 27.7149 23.4519C27.333 24.612 26.239 25.3672 25.0387 25.3586C23.9102 25.35 22.7817 24.5201 22.4257 23.3945C22.3453 23.1361 22.2304 23.0787 21.9806 23.0787C18.5464 23.0873 15.1092 23.0844 11.675 23.0787C11.4453 23.0787 11.3362 23.1217 11.2586 23.3773C10.9169 24.5172 9.81429 25.3385 8.66284 25.3586C7.47406 25.3758 6.32261 24.5833 5.95219 23.4376C5.85457 23.1361 5.71386 23.0758 5.42959 23.0758C4.84956 23.0815 4.26378 23.0959 3.69524 23.0126C2.75053 22.8748 2.15901 22.289 1.89771 21.3701C1.869 21.2725 1.81157 21.1864 1.76562 21.0916C1.76562 16.9223 1.76562 12.7529 1.76562 8.58359H1.7685ZM11.3792 7.73077C8.97583 7.73077 6.56956 7.73077 4.16615 7.73077C3.29898 7.73077 2.90272 8.13277 2.90272 8.98846C2.90272 12.2102 2.90272 15.432 2.90272 18.6538C2.90272 19.34 2.90272 20.0263 2.90272 20.7155C2.90272 21.5482 3.31046 21.9502 4.1518 21.953C4.57677 21.953 5.00462 21.9358 5.42959 21.953C5.71386 21.9645 5.85744 21.9014 5.95794 21.5941C6.33697 20.4341 7.44535 19.6588 8.62551 19.6731C9.84875 19.6875 10.9054 20.4714 11.2644 21.6716C11.3362 21.91 11.4453 21.953 11.6606 21.953C15.1179 21.9473 18.5779 21.9473 22.0352 21.953C22.2448 21.953 22.3367 21.8985 22.4085 21.686C22.8133 20.4628 23.8873 19.6702 25.0875 19.676C26.3423 19.6817 27.3646 20.4599 27.7723 21.7147C27.7982 21.7894 27.8384 21.9243 27.8728 21.9243C28.1772 21.9272 28.5074 21.9731 28.7745 21.8669C28.9238 21.8066 29.0415 21.485 29.0444 21.2783C29.0702 20.0952 29.0472 18.9093 29.0616 17.7263C29.0673 17.241 28.9266 16.8218 28.6309 16.4427C28.3236 16.0522 28.0308 15.6502 27.7063 15.2741C27.6115 15.1621 27.4364 15.0731 27.2928 15.0587C25.6302 14.9094 23.9677 14.7687 22.3051 14.6395C21.1019 14.5476 20.6167 14.1743 20.3094 12.9999C19.8845 11.3746 19.4796 9.74653 19.0862 8.11555C19.0144 7.81691 18.8967 7.72503 18.5923 7.7279C16.1889 7.74226 13.7826 7.73651 11.3792 7.73651V7.73077ZM26.7214 13.8613C26.3395 13.1176 25.9892 12.4486 25.6503 11.7766C25.1134 10.7113 24.5936 9.63454 24.0452 8.57498C23.7379 7.98346 23.2096 7.7279 22.552 7.7279C21.8428 7.7279 21.1307 7.7279 20.4214 7.7279C20.3209 7.7279 20.2233 7.74513 20.0998 7.75661C20.2721 8.45438 20.4358 9.11768 20.6023 9.78098C20.8722 10.8463 21.145 11.9116 21.4178 12.974C21.4982 13.2899 21.6648 13.488 22.0294 13.4995C22.4917 13.511 22.9512 13.5627 23.4106 13.5971C24.4816 13.6804 25.5527 13.7666 26.7156 13.8584L26.7214 13.8613ZM25.0502 20.7959C24.0136 20.8188 23.3532 21.5424 23.3733 22.6278C23.3905 23.5611 24.1486 24.2473 25.1363 24.2272C26.0667 24.21 26.7845 23.4663 26.7759 22.5302C26.7673 21.5424 26.0006 20.7729 25.0502 20.793V20.7959ZM6.88541 22.513C6.87967 23.5209 7.58605 24.2272 8.60541 24.2301C9.52427 24.233 10.2823 23.4606 10.2852 22.5187C10.2852 21.6027 9.53289 20.8102 8.64561 20.7959C7.60615 20.7815 6.89403 21.4793 6.88829 22.513H6.88541Z" fill="#461D58"/>
<path d="M11.3749 7.73029C13.7783 7.73029 16.1846 7.73604 18.588 7.72168C18.8953 7.72168 19.0101 7.81069 19.0819 8.10933C19.4753 9.74031 19.8802 11.3684 20.3051 12.9937C20.6124 14.1709 21.0977 14.5414 22.3008 14.6333C23.9634 14.7625 25.6288 14.9032 27.2885 15.0525C27.4349 15.0668 27.6072 15.1559 27.702 15.2678C28.0265 15.644 28.3194 16.046 28.6266 16.4365C28.9224 16.8127 29.0631 17.2348 29.0573 17.7201C29.0458 18.9031 29.0659 20.089 29.0401 21.272C29.0343 21.4788 28.9195 21.8033 28.7702 21.8607C28.5031 21.9669 28.1729 21.921 27.8685 21.9181C27.8341 21.9181 27.7939 21.786 27.768 21.7085C27.3603 20.4508 26.3352 19.6726 25.0832 19.6698C23.883 19.664 22.809 20.4565 22.4042 21.6798C22.3324 21.8923 22.2405 21.9468 22.0309 21.9468C18.5737 21.9411 15.1136 21.9411 11.6563 21.9468C11.441 21.9468 11.3319 21.9066 11.2601 21.6654C10.9012 20.468 9.84447 19.6813 8.62123 19.6669C7.44394 19.6525 6.33556 20.4307 5.95366 21.5879C5.85316 21.8923 5.70958 21.9583 5.42531 21.9468C5.00034 21.9267 4.57249 21.9468 4.14752 21.9468C3.30618 21.944 2.90131 21.542 2.89844 20.7092C2.89844 20.023 2.89844 19.3367 2.89844 18.6475C2.89844 15.4258 2.89844 12.204 2.89844 8.98224C2.89844 8.12655 3.2947 7.72742 4.16187 7.72455C6.56527 7.72168 8.97155 7.72455 11.3749 7.72455V7.73029Z" fill="#FF9CDB"/>
<path d="M26.7174 13.862C25.5544 13.7701 24.4834 13.684 23.4123 13.6007C22.9529 13.5634 22.4935 13.5145 22.0312 13.5031C21.6665 13.4944 21.5 13.2963 21.4196 12.9776C21.1468 11.9123 20.874 10.8498 20.6041 9.78453C20.4375 9.12123 20.2738 8.45792 20.1016 7.76016C20.2222 7.74867 20.3227 7.73145 20.4232 7.73145C21.1324 7.73145 21.8445 7.73145 22.5538 7.73145C23.2113 7.73145 23.7397 7.987 24.0469 8.57852C24.5954 9.63809 25.1151 10.7149 25.6521 11.7802C25.9909 12.4521 26.3383 13.1183 26.7231 13.8649L26.7174 13.862Z" fill="white"/>
<path d="M25.0524 20.7953C26.0057 20.7752 26.7695 21.5448 26.7781 22.5325C26.7867 23.4686 26.0689 24.2123 25.1385 24.2296C24.1507 24.2468 23.3927 23.5605 23.3754 22.6302C23.3553 21.5419 24.0158 20.8212 25.0524 20.7982V20.7953Z" fill="white"/>
<path d="M6.88572 22.5123C6.89146 21.4785 7.60645 20.7808 8.64304 20.7951C9.53032 20.8066 10.2855 21.5991 10.2826 22.518C10.2826 23.4598 9.52458 24.2351 8.60284 24.2294C7.58348 24.2265 6.8771 23.5201 6.88285 22.5123H6.88572Z" fill="white"/>
<path d="M11.9249 18.9146C9.68806 18.8716 7.76131 17.4071 7.19564 15.2018C6.65581 13.0942 7.78716 10.5817 10.0527 9.65709C10.6557 9.41014 11.2817 9.26944 11.9364 9.28093C12.0455 9.28093 12.1546 9.29241 12.2637 9.30964C12.4533 9.33548 12.5279 9.45896 12.4504 9.63699C12.37 9.82937 12.3039 10.0218 12.3413 10.2342C12.3901 10.5042 12.5538 10.6879 12.7835 10.82C12.9873 10.9378 13.0103 10.978 12.9184 11.1962C12.6916 11.7532 12.7634 12.2672 13.1481 12.7209C13.5243 13.166 14.1675 13.301 14.7188 13.0798C15.0031 12.965 15.0376 12.9765 15.1897 13.2292C15.4195 13.6111 15.8014 13.7345 16.212 13.5623C16.2551 13.545 16.2981 13.5221 16.3441 13.5077C16.502 13.4503 16.6427 13.5163 16.6628 13.6857C16.6886 13.904 16.7059 14.1251 16.6829 14.3433C16.4675 16.4509 15.385 17.9039 13.3922 18.6591C12.9012 18.8457 12.3843 18.9118 11.922 18.9204L11.9249 18.9146ZM16.2292 14.0332C16.0483 14.0504 15.8789 14.0935 15.7152 14.0734C15.385 14.0332 15.1323 13.8465 14.9485 13.5709C14.8997 13.4962 14.8538 13.4704 14.7619 13.5048C14.1158 13.7546 13.5329 13.6254 13.0103 13.1947C12.5021 12.7755 12.123 11.9456 12.4705 11.1818C12.5107 11.0957 12.4561 11.0641 12.3987 11.0239C11.9622 10.7253 11.8129 10.3118 11.9565 9.8064C11.9622 9.78917 11.9622 9.76907 11.9622 9.75184C10.6356 9.6456 8.92425 10.3893 8.05133 11.9743C7.16405 13.5852 7.3708 15.6756 8.68018 17.0826C10.024 18.5241 12.0915 18.7825 13.6478 18.0848C15.5487 17.232 16.3067 15.4258 16.2263 14.0303L16.2292 14.0332Z" fill="black" stroke="#461D58" stroke-width="0.92437" stroke-miterlimit="10"/>
<path d="M14.3985 9.73993C14.3985 9.49873 14.6224 9.2805 14.8579 9.28624C15.0905 9.29199 15.3058 9.51022 15.3087 9.73993C15.3087 9.96965 15.0761 10.1936 14.8407 10.1907C14.5995 10.1879 14.3956 9.98113 14.3985 9.73993Z" fill="#461D58"/>
<path d="M14.5136 11.7987C14.3298 11.7958 14.1747 11.6408 14.1719 11.4599C14.1719 11.2761 14.3241 11.1182 14.5078 11.1182C14.6887 11.1182 14.8582 11.2876 14.8582 11.4685C14.8582 11.6494 14.6973 11.8044 14.5136 11.8016V11.7987Z" fill="#461D58"/>
<path d="M16.4568 12.2472C16.3477 12.2443 16.2472 12.1381 16.2501 12.0318C16.2501 11.9141 16.3563 11.8136 16.474 11.8165C16.5803 11.8165 16.6836 11.9256 16.6836 12.0318C16.6836 12.1496 16.5745 12.2501 16.4597 12.2472H16.4568Z" fill="#461D58"/>
<path d="M16.2306 14.0335C16.311 15.4291 15.5529 17.2352 13.652 18.088C12.0986 18.7829 10.0283 18.5274 8.68444 17.0859C7.37219 15.676 7.16832 13.5885 8.05559 11.9776C8.92851 10.3925 10.6399 9.64884 11.9665 9.75508C11.9665 9.77231 11.9665 9.79241 11.9608 9.80964C11.8172 10.315 11.9665 10.7285 12.403 11.0271C12.4604 11.0673 12.515 11.096 12.4748 11.1851C12.1302 11.9489 12.5063 12.7787 13.0146 13.1979C13.5372 13.6287 14.1201 13.7607 14.7662 13.5081C14.8581 13.4736 14.9011 13.4994 14.9528 13.5741C15.1366 13.8498 15.3893 14.0364 15.7195 14.0766C15.8832 14.0967 16.0526 14.0536 16.2335 14.0364L16.2306 14.0335ZM8.89693 13.6344C8.89693 14.0106 9.2013 14.3236 9.57459 14.3264C9.94788 14.3293 10.2724 14.0077 10.2724 13.6344C10.2724 13.2755 9.94501 12.9481 9.58033 12.951C9.20704 12.951 8.89693 13.2611 8.89693 13.6344ZM13.1381 16.8504C13.4424 16.8504 13.7152 16.5776 13.7152 16.2733C13.7152 15.9832 13.4309 15.7105 13.1352 15.7105C12.8452 15.7105 12.5724 15.9861 12.5695 16.2847C12.5638 16.5805 12.8337 16.8476 13.1381 16.8476V16.8504ZM9.58608 15.943C9.58608 16.1842 9.79282 16.3881 10.034 16.3881C10.2666 16.3881 10.4935 16.1728 10.4963 15.9459C10.5021 15.7133 10.2752 15.4836 10.0398 15.4836C9.80143 15.4836 9.5832 15.7018 9.5832 15.943H9.58608ZM11.0792 12.4887C11.263 12.4887 11.4238 12.3308 11.4181 12.1527C11.4152 11.9718 11.2429 11.8024 11.062 11.8082C10.8811 11.8139 10.7289 11.9718 10.7318 12.1556C10.7347 12.3365 10.8926 12.4887 11.0764 12.4887H11.0792ZM11.7655 14.5533C11.9493 14.5533 12.1101 14.3982 12.1072 14.2173C12.1043 14.0364 11.932 13.867 11.754 13.8727C11.5731 13.8756 11.4209 14.0364 11.4238 14.2202C11.4238 14.4011 11.5846 14.5533 11.7684 14.5533H11.7655Z" fill="white"/>
<path d="M8.89062 13.6346C8.89062 13.2613 9.20074 12.9512 9.57403 12.9512C9.9387 12.9512 10.266 13.2756 10.266 13.6346C10.266 14.0079 9.9387 14.3295 9.56829 14.3266C9.19787 14.3237 8.89062 14.0107 8.89062 13.6346Z" fill="#461D58"/>
<path d="M13.1311 16.85C12.8239 16.85 12.5568 16.5829 12.5626 16.2872C12.5683 15.9885 12.8383 15.7129 13.1283 15.7129C13.424 15.7129 13.7054 15.9857 13.7083 16.2757C13.7083 16.5801 13.4384 16.8529 13.1311 16.8529V16.85Z" fill="#461D58"/>
<path d="M9.58594 15.9429C9.58594 15.7017 9.8013 15.4806 10.0425 15.4834C10.278 15.4834 10.5048 15.7131 10.4991 15.9457C10.4933 16.1726 10.2665 16.3879 10.0368 16.3879C9.79555 16.3879 9.58881 16.1841 9.58881 15.9429H9.58594Z" fill="#461D58"/>
<path d="M11.0712 12.4883C10.8874 12.4883 10.7295 12.3361 10.7266 12.1552C10.7237 11.9714 10.873 11.8106 11.0568 11.8078C11.2348 11.802 11.4071 11.9714 11.4129 12.1523C11.4158 12.3304 11.2578 12.4883 11.074 12.4883H11.0712Z" fill="#461D58"/>
<path d="M11.7664 14.5526C11.5827 14.5526 11.4247 14.3976 11.4219 14.2196C11.4219 14.0358 11.5712 13.8778 11.7521 13.8721C11.933 13.8692 12.1024 14.0358 12.1053 14.2167C12.1053 14.3947 11.9473 14.5526 11.7636 14.5526H11.7664Z" fill="#461D58"/>
</svg>
